<svg width="355" height="104" viewBox="0 0 355 104" fill="none" xmlns="http://www.w3.org/2000/svg">
<path d="M345.5 71.0667C345.502 68.2577 346.436 65.5567 348.111 63.5206C349.786 61.4845 352.072 60.2686 354.5 60.1236V10.4C354.5 7.64175 353.552 4.99648 351.864 3.0461C350.176 1.09572 347.887 0 345.5 0H9.5C7.11305 0 4.82387 1.09572 3.13605 3.0461C1.44822 4.99648 0.5 7.64175 0.5 10.4V60.0889C2.93632 60.2183 5.23573 61.4278 6.92023 63.4658C8.60472 65.5039 9.54468 68.2137 9.54468 71.032C9.54468 73.8502 8.60472 76.5601 6.92023 78.5982C5.23573 80.6362 2.93632 81.8457 0.5 81.9751V93.5307C0.5 96.2889 1.44822 98.9342 3.13605 100.885C4.82387 102.835 7.11305 103.931 9.5 103.931H345.5C347.887 103.931 350.176 102.835 351.864 100.885C353.552 98.9342 354.5 96.2889 354.5 93.5307V82.0444C352.067 81.8991 349.776 80.6783 348.101 78.6348C346.425 76.5913 345.494 73.8816 345.5 71.0667Z" fill="#FAFAFA"/>
</svg>
