<svg width="19" height="18" viewBox="0 0 19 18" fill="none" xmlns="http://www.w3.org/2000/svg">
<path d="M16.7148 3.0738C16.3138 2.67138 15.8373 2.35208 15.3126 2.13422C14.7879 1.91635 14.2254 1.8042 13.6572 1.8042C13.0891 1.8042 12.5266 1.91635 12.0019 2.13422C11.4772 2.35208 11.0007 2.67138 10.5996 3.0738L9.98413 3.69731L9.36862 3.0738C8.96759 2.67138 8.49107 2.35208 7.96638 2.13422C7.44169 1.91635 6.87916 1.8042 6.31103 1.8042C5.74291 1.8042 5.18037 1.91635 4.65568 2.13422C4.13099 2.35208 3.65447 2.67138 3.25345 3.0738C1.55879 4.76846 1.45487 7.6302 3.58918 9.80449L9.98413 16.1994L16.3791 9.80449C18.5134 7.6302 18.4095 4.76846 16.7148 3.0738Z" stroke="#05CE91" stroke-width="2" stroke-linecap="round" stroke-linejoin="round"/>
</svg>
