<svg width="16" height="19" viewBox="0 0 16 19" fill="none" xmlns="http://www.w3.org/2000/svg">
<g clip-path="url(#clip0_725_20)">
<path d="M-nan -nanL2.43968 0.527268H14.5282C14.6704 0.526271 14.8114 0.553537 14.9429 0.607486C15.0745 0.661435 15.194 0.740983 15.2945 0.84152C15.395 0.942057 15.4746 1.06157 15.5285 1.19312C15.5825 1.32467 15.6098 1.46563 15.6088 1.60781V14.7839C15.6088 15.6665 14.5487 16.1163 13.9139 15.5031L13.3872 14.9941C12.9308 14.5532 12.1845 14.6434 11.8463 15.1803L11.3966 15.894C11.02 16.4917 10.1592 16.5211 9.74275 15.9504L9.47449 15.5828C9.11337 15.0879 8.3962 15.0311 7.96171 15.463L7.08554 16.334C6.65613 16.7608 5.94889 16.7112 5.58335 16.2285L4.97122 15.4202C4.62374 14.9613 3.96163 14.8898 3.52416 15.2638L2.97899 15.73C2.33007 16.2848 1.32913 15.8237 1.32913 14.9699V1.60781C1.32803 1.46305 1.35622 1.31957 1.41203 1.186C1.46783 1.05243 1.5501 0.931524 1.65385 0.830574C1.7576 0.729624 1.8807 0.650726 2.01576 0.598601C2.15081 0.546476 2.29501 0.522203 2.43968 0.527268L-nan -nanL-nan -nanZ" stroke="#05CE91" stroke-width="2" stroke-miterlimit="10"/>
<path d="M3.65527 4.03906H13.4477" stroke="#05CE91" stroke-width="2" stroke-miterlimit="10"/>
<path d="M3.65527 7.47583H13.4477" stroke="#05CE91" stroke-width="2" stroke-miterlimit="10"/>
<path d="M3.65527 10.8599H10.3411" stroke="#05CE91" stroke-width="2" stroke-miterlimit="10"/>
<path d="M11.6919 10.8599H13.4478" stroke="#05CE91" stroke-width="2" stroke-miterlimit="10"/>
</g>
<defs>
<clipPath id="clip0_725_20">
<rect width="15" height="17.8664" fill="white" transform="translate(0.984131 0.1521)"/>
</clipPath>
</defs>
</svg>
