<svg width="19" height="22" viewBox="0 0 19 22" fill="none" xmlns="http://www.w3.org/2000/svg">
<g clip-path="url(#clip0_814_121)">
<path d="M-nan -nanL2.72528 0.450251H17.2315C17.4021 0.449054 17.5713 0.481774 17.7291 0.546512C17.887 0.611251 18.0304 0.706709 18.1511 0.827353C18.2717 0.947997 18.3672 1.09142 18.4319 1.24927C18.4966 1.40713 18.5294 1.57629 18.5282 1.7469V18.0295C18.5282 18.9122 17.4681 19.362 16.8333 18.7487L15.6853 17.6395C15.2289 17.1986 14.4826 17.2887 14.1444 17.8256L13.3165 19.1396C12.94 19.7374 12.0791 19.7667 11.6627 19.196L11.0297 18.3287C10.6686 17.8338 9.95143 17.777 9.51694 18.2089L8.13801 19.5796C7.7086 20.0065 7.00136 19.9568 6.63583 19.4741L5.635 18.1526C5.28752 17.6937 4.62541 17.6222 4.18795 17.9962L3.04247 18.9756C2.39355 19.5304 1.39262 19.0693 1.39262 18.2155V1.7469C1.39129 1.57319 1.42513 1.40102 1.49209 1.24073C1.55906 1.08044 1.65777 0.935358 1.78228 0.814218C1.90678 0.693078 2.0545 0.5984 2.21656 0.53585C2.37862 0.4733 2.55167 0.444172 2.72528 0.450251L-nan -nanL-nan -nanZ" stroke="#05CE91" stroke-width="2" stroke-miterlimit="10"/>
<path d="M4.18408 4.66431H15.935" stroke="#05CE91" stroke-width="2" stroke-miterlimit="10"/>
<path d="M4.18408 8.78857H15.935" stroke="#05CE91" stroke-width="2" stroke-miterlimit="10"/>
<path d="M4.18408 12.8496H12.2071" stroke="#05CE91" stroke-width="2" stroke-miterlimit="10"/>
<path d="M13.8279 12.8494H15.9349" stroke="#05CE91" stroke-width="2" stroke-miterlimit="10"/>
<ellipse cx="14.7431" cy="12.7058" rx="2.11765" ry="2.11765" fill="#E61C1C"/>
</g>
<defs>
<clipPath id="clip0_814_121">
<rect width="18" height="21.4397" fill="white" transform="translate(0.978516)"/>
</clipPath>
</defs>
</svg>
