<svg width="11" height="10" viewBox="0 0 11 10" fill="none" xmlns="http://www.w3.org/2000/svg">
<path d="M8.79779 9.32243C8.7135 10.0545 9.62746 9.95629 9.94239 9.29252C10.8244 7.43312 10.9294 4.32248 10.3164 3.06358C9.57667 1.54545 8.11261 1.40741 5.84597 1.26744C4.81763 1.20456 3.0055 0.244374 1.22763 1.71111C-0.100599 2.80743 0.42055 4.27915 0.769351 4.95327C0.825415 5.06217 0.627866 5.06792 0.549226 4.97436C0.46607 4.87543 0.3754 5.05259 0.404749 5.17951C0.50747 5.6274 0.746014 6.2348 1.29687 6.48213C2.2161 6.89474 3.02019 6.193 4.99937 6.28542C6.97892 6.37936 6.98342 7.71419 7.25659 8.03055C7.52938 8.34729 7.56324 7.80469 8.22774 7.60184C8.8926 7.39899 8.89374 8.48917 8.79779 9.32243Z" fill="#3A3A3A"/>
</svg>
