<svg width="84" height="63" viewBox="0 0 84 63" fill="none" xmlns="http://www.w3.org/2000/svg">
<path d="M41.9787 62.9473C30.5337 62.9473 19.0862 62.9499 7.64129 62.9473C3.45275 62.9473 0.128802 59.6626 0.0578098 55.3458C-0.0081115 51.3008 -0.0334658 47.2505 0.0679515 43.2055C0.151621 39.8581 1.79205 37.4332 4.78132 36.0979C5.53435 35.7608 5.7955 35.3715 5.77775 34.5614C5.73464 32.5598 5.73718 30.5582 5.77775 28.5566C5.79296 27.8066 5.58252 27.412 4.87006 27.0932C1.62724 25.6404 0.047668 23.0247 0.0451326 19.3925C0.0425972 15.7368 0.0400617 12.0811 0.0451326 8.42543C0.0502035 3.6226 3.16879 0.160275 7.79595 0.0740433C13.4525 -0.0304797 19.1141 0.029621 24.7732 0.0609779C26.2666 0.0688172 27.7118 0.437261 28.9694 1.33093C29.4764 1.69415 29.9277 1.6837 30.4957 1.46159C36.6771 -0.960735 42.501 -0.208169 47.9268 3.67225C48.4998 4.07989 48.8522 4.12692 49.4582 3.69838C55.3759 -0.490381 61.7018 -1.24556 68.1393 2.07305C74.7491 5.4805 78.106 11.2737 78.2911 18.883C78.4179 24.0595 78.3368 29.2386 78.3063 34.4177C78.3013 35.314 78.5447 35.7504 79.3941 36.1476C82.3402 37.5299 83.9553 39.9261 83.9756 43.3231C83.9984 47.2819 83.9147 51.2459 83.9984 55.2021C84.0922 59.6234 80.0431 63.0466 76.4428 62.9995C64.9573 62.8532 53.4667 62.9473 41.9787 62.9473ZM57.3282 38.2929C57.3282 43.6889 57.3256 49.0849 57.3307 54.4783C57.3332 56.4146 58.0305 57.1358 59.9295 57.1384C65.1652 57.1462 70.4034 57.1462 75.6391 57.1384C77.5254 57.1358 78.2455 56.4067 78.2531 54.4678C78.2658 51.1179 78.2607 47.7679 78.2556 44.4179C78.2531 41.9773 77.7486 41.4678 75.3424 41.4573C73.058 41.4469 72.5205 40.8929 72.5205 38.515C72.518 32.032 72.5636 25.5489 72.5027 19.0659C72.447 13.0872 68.8771 8.20071 63.5096 6.57015C58.2206 4.96311 52.8176 7.15548 49.5926 12.2222C48.8218 13.4321 48.5784 13.419 47.7696 12.1203C43.467 5.20351 34.636 4.0224 28.7919 9.55167C28.3101 10.0063 27.9831 11.0855 27.1413 10.6465C26.4187 10.2703 26.8142 9.30081 26.7838 8.59528C26.7027 6.76613 26.0663 6.05799 24.3092 6.05276C18.9874 6.04231 13.668 6.04231 8.34614 6.05276C6.55359 6.05537 5.87916 6.73216 5.86649 8.55609C5.8462 11.6003 5.85888 14.6446 5.85888 17.6914C5.85888 21.4882 5.85888 21.4882 9.5099 21.7312C10.7903 21.8174 11.5459 22.4629 11.556 23.7381C11.594 28.959 11.594 34.1799 11.5585 39.4008C11.5509 40.6734 10.7903 41.358 9.53526 41.4443C9.07381 41.4756 8.60729 41.4495 8.14331 41.4573C6.54598 41.4861 5.88423 42.108 5.87156 43.7359C5.84367 47.4334 5.84367 51.1335 5.87156 54.8311C5.88423 56.3728 6.6474 57.094 8.1712 57.1384C8.2143 57.1384 8.25487 57.1384 8.29797 57.1384C14.2512 57.1384 20.2069 57.1436 26.1601 57.1358C27.7067 57.1332 28.6043 56.459 28.6195 55.142C28.6626 51.2276 28.655 47.3106 28.622 43.3936C28.6119 42.2987 27.9881 41.6507 26.9182 41.4599C24.6135 41.0471 23.8909 40.1769 23.8858 37.7833C23.8782 32.4318 23.8833 27.0802 23.8858 21.7286C23.8858 21.3811 23.8782 21.0283 23.9365 20.6886C24.0227 20.1686 24.3042 19.8106 24.867 19.808C25.4857 19.8054 25.7899 20.1791 25.8609 20.767C25.9015 21.1093 25.8863 21.4621 25.8863 21.8096C25.8888 25.7266 25.8863 29.641 25.8888 33.558C25.8888 33.8637 25.8888 34.1668 25.8989 34.4726C25.9192 35.0501 26.2615 35.3715 26.7737 35.395C27.3163 35.4211 27.623 35.0474 27.6788 34.5039C27.7194 34.1172 27.7169 33.7226 27.7169 33.3307C27.7194 29.3274 27.7169 25.3242 27.7219 21.321C27.7219 20.5998 27.7422 19.8211 28.7006 19.8211C29.6412 19.8211 29.692 20.5632 29.692 21.3053C29.6869 25.3085 29.6894 29.3118 29.692 33.315C29.692 33.6625 29.6894 34.0101 29.6996 34.3602C29.7173 34.9664 30.0038 35.3871 30.6072 35.3898C31.231 35.3924 31.4769 34.9455 31.4896 34.3445C31.4972 33.997 31.4997 33.6495 31.5023 33.2993C31.5023 29.3823 31.4997 25.4679 31.5073 21.5509C31.5099 20.767 31.4338 19.808 32.5367 19.8289C33.6396 19.8498 33.5103 20.8245 33.5129 21.5953C33.5205 25.5123 33.5154 29.4267 33.5179 33.3437C33.5179 33.6913 33.5129 34.0414 33.5281 34.389C33.556 34.9926 33.8349 35.4028 34.456 35.3871C35.0113 35.3741 35.2699 34.9821 35.3079 34.4412C35.3358 34.0519 35.3384 33.6599 35.3384 33.2679C35.3409 29.3091 35.3384 25.3477 35.3434 21.3889C35.3434 20.6259 35.3586 19.774 36.3906 19.8211C37.3084 19.8629 37.3338 20.6572 37.3338 21.3785C37.3363 26.9913 37.349 32.6042 37.3261 38.2171C37.3185 40.1639 36.3956 41.183 34.5422 41.4469C33.1604 41.6429 32.5443 42.2465 32.5342 43.634C32.5012 47.3759 32.5012 51.1179 32.5342 54.8598C32.5468 56.3048 33.3582 57.1227 34.7603 57.1279C40.2495 57.1488 45.7387 57.1515 51.2305 57.1279C52.6554 57.1227 53.4337 56.3257 53.4439 54.8572C53.4718 51.1153 53.4616 47.3733 53.449 43.6314C53.4439 42.4294 52.8684 41.6899 51.6818 41.4573C50.054 41.1359 49.6433 40.6133 49.6382 38.8913C49.6281 36.1946 49.5976 33.4953 49.6458 30.7986C49.7117 26.9521 51.0175 23.5865 53.5022 20.7095C54.1766 19.9282 54.917 19.2671 56.0224 19.6878C57.1634 20.1242 57.3485 21.1041 57.3434 22.2355C57.3155 27.5897 57.3282 32.9413 57.3282 38.2929Z" fill="url(#paint0_linear_240_204)"/>
<defs>
<linearGradient id="paint0_linear_240_204" x1="3" y1="6.16269e-07" x2="81" y2="60" gradientUnits="userSpaceOnUse">
<stop stop-color="#05CE91"/>
<stop offset="1" stop-color="#2AD5A1"/>
</linearGradient>
</defs>
</svg>
