<svg width="286" height="190" viewBox="0 0 286 190" fill="none" xmlns="http://www.w3.org/2000/svg">
<g clip-path="url(#clip0_240_487)">
<path d="M102.588 109.347C112.39 92.1114 131.086 78.8774 150.877 80.1523C136.278 96.0222 127.766 116.543 126.845 138.083C126.52 146.391 127.024 155.666 121.505 161.887C118.072 165.758 112.823 167.633 107.663 168.026C102.502 168.419 97.3428 167.487 92.2512 166.559L91.0161 166.938C90.5459 147.118 92.7871 126.582 102.588 109.347Z" fill="#F0F0F0"/>
<path d="M150.907 80.5671C136.271 87.6102 123.792 99.3729 116.131 113.718C114.475 116.82 113.065 120.11 112.449 123.589C111.834 127.069 112.264 130.382 113.453 133.688C114.54 136.71 116.002 139.676 116.336 142.909C116.687 146.317 115.433 149.504 113.174 152.034C110.411 155.128 106.701 157.046 103.007 158.795C98.9057 160.737 94.615 162.69 91.7101 166.315C91.3581 166.754 90.697 166.182 91.0484 165.744C96.1024 159.437 104.754 158.252 110.753 153.171C113.552 150.801 115.653 147.572 115.521 143.79C115.405 140.482 113.9 137.423 112.773 134.373C111.589 131.17 110.999 127.949 111.423 124.534C111.857 121.041 113.142 117.689 114.711 114.559C118.251 107.499 123.096 101.018 128.646 95.4159C135.024 88.9761 142.457 83.6744 150.623 79.7403C151.129 79.497 151.409 80.3254 150.907 80.5671Z" fill="white"/>
<path d="M118.375 108.924C116.131 107.284 114.544 104.9 113.896 102.198C113.248 99.4961 113.583 96.6519 114.839 94.1735C115.095 93.6729 115.885 94.0469 115.629 94.5482C114.455 96.854 114.144 99.5034 114.752 102.018C115.36 104.533 116.848 106.748 118.946 108.263C119.402 108.592 118.828 109.252 118.375 108.924Z" fill="white"/>
<path d="M112.7 132.228C118.322 131.407 123.428 128.498 127 124.08C127.353 123.642 128.014 124.214 127.661 124.651C123.936 129.241 118.616 132.258 112.764 133.1C112.206 133.18 112.145 132.308 112.7 132.228V132.228Z" fill="white"/>
<path d="M135.455 90.0513C136.191 90.8667 137.118 91.4866 138.153 91.8554C139.188 92.2242 140.298 92.3302 141.384 92.1641C141.94 92.0773 142.001 92.9493 141.448 93.0356C140.247 93.2135 139.021 93.0949 137.877 92.69C136.733 92.2851 135.705 91.6062 134.884 90.7128C134.8 90.635 134.748 90.5281 134.74 90.4136C134.731 90.2992 134.767 90.1858 134.839 90.0966C134.915 90.0094 135.023 89.9557 135.138 89.9472C135.253 89.9388 135.367 89.9762 135.455 90.0513Z" fill="white"/>
<path d="M190.256 134.524C189.91 134.588 189.564 134.652 189.215 134.723C184.568 135.609 180 136.871 175.557 138.497C175.212 138.617 174.864 138.744 174.522 138.874C163.86 142.904 154.04 148.879 145.56 156.493C142.188 159.526 139.052 162.811 136.179 166.32C132.212 171.165 128.295 176.735 123.111 179.895C122.574 180.23 122.016 180.532 121.441 180.799L91.5744 168.415C91.5207 168.353 91.4638 168.297 91.4097 168.235L90.1946 167.795C90.3301 167.604 90.4748 167.408 90.6103 167.217C90.6885 167.106 90.7733 166.997 90.8515 166.886C90.9057 166.812 90.9602 166.739 91.005 166.67C91.0229 166.646 91.0412 166.621 91.0564 166.603C91.1011 166.534 91.15 166.475 91.1919 166.412C91.9976 165.317 92.8124 164.226 93.6364 163.138C93.6392 163.132 93.6392 163.132 93.6487 163.128C99.9477 154.857 106.993 147.04 115.001 140.541C115.242 140.345 115.485 140.143 115.74 139.953C119.366 137.043 123.224 134.434 127.275 132.153C129.497 130.911 131.781 129.782 134.117 128.771C140.159 126.169 146.573 124.534 153.123 123.925C166.181 122.713 179.482 125.689 189.497 133.89C189.753 134.1 190.003 134.307 190.256 134.524Z" fill="#F0F0F0"/>
<path d="M190.032 134.875C174.104 131.69 157.056 133.571 142.299 140.414C139.108 141.894 136.001 143.672 133.415 146.079C130.827 148.488 129.175 151.392 128.133 154.747C127.181 157.814 126.563 161.062 124.881 163.844C123.109 166.777 120.188 168.567 116.862 169.227C112.792 170.035 108.674 169.333 104.671 168.507C100.227 167.589 95.6249 166.566 91.1224 167.711C90.5768 167.85 90.3932 166.996 90.9379 166.857C98.7716 164.864 106.393 169.124 114.243 168.678C117.906 168.47 121.528 167.157 123.7 164.057C125.6 161.346 126.241 157.998 127.178 154.884C128.162 151.614 129.63 148.688 132.026 146.217C134.476 143.689 137.521 141.785 140.659 140.231C147.737 136.725 155.509 134.466 163.314 133.333C172.285 132.03 181.414 132.27 190.304 134.044C190.854 134.154 190.578 134.984 190.032 134.875V134.875Z" fill="white"/>
<path d="M146.978 137.937C146.174 135.277 146.343 132.418 147.453 129.871C148.563 127.324 150.543 125.254 153.039 124.031C153.545 123.786 153.95 124.56 153.444 124.806C151.117 125.94 149.273 127.868 148.244 130.242C147.216 132.617 147.069 135.28 147.833 137.752C147.998 138.29 147.142 138.471 146.978 137.937Z" fill="white"/>
<path d="M128.411 153.129C133.395 155.857 139.224 156.607 144.736 155.229C145.282 155.092 145.466 155.947 144.92 156.083C139.181 157.506 133.117 156.713 127.937 153.863C127.444 153.591 127.92 152.858 128.411 153.129Z" fill="white"/>
<path d="M171.983 133.148C172.079 134.242 172.446 135.295 173.05 136.212C173.654 137.129 174.476 137.882 175.444 138.403C175.94 138.669 175.463 139.401 174.97 139.137C173.904 138.557 172.997 137.724 172.327 136.712C171.657 135.7 171.246 134.54 171.128 133.332C171.108 133.219 171.131 133.103 171.193 133.007C171.255 132.91 171.352 132.841 171.463 132.813C171.576 132.789 171.695 132.811 171.792 132.874C171.889 132.937 171.958 133.035 171.983 133.148Z" fill="white"/>
<path d="M133.361 154.955C129.178 134.737 123.95 127.997 123.95 127.997L121.952 126.449L119.55 124.583L119.562 124.344L118.992 124.15L118.858 124.046L118.639 123.878L118.604 123.916L118.529 123.993L107.66 120.299L93.8698 115.617L87.4842 107.32C86.4442 105.968 85.1053 104.876 83.5724 104.129C82.0395 103.381 80.3542 102.999 78.6487 103.012L58.2551 103.162C55.4976 103.183 52.8475 104.234 50.8258 106.108L37.4214 118.537L16.5348 128.509L16.4995 128.474L16.2802 128.631L13.053 130.173L13.1862 130.866L11.1887 132.307C11.1887 132.307 5.96024 138.579 1.77742 157.391C0.713355 162.178 0.189584 172.446 0.000531279 185.099C-0.00896484 185.739 0.108925 186.374 0.347343 186.968C0.585761 187.563 0.939953 188.103 1.38932 188.559C1.83869 189.016 2.37427 189.378 2.96493 189.625C3.55558 189.872 4.18952 190 4.82989 190H116.39V190H130.314C130.954 190 131.587 189.872 132.177 189.625C132.768 189.378 133.303 189.016 133.752 188.561C134.202 188.105 134.556 187.565 134.795 186.972C135.033 186.378 135.152 185.743 135.143 185.104C134.958 171.335 134.435 160.146 133.361 154.955Z" fill="#05CE91"/>
<path d="M147.675 17.6313C143.335 17.6313 139.172 19.3549 136.103 22.4229C133.034 25.4909 131.31 29.652 131.31 33.9908C131.31 38.3296 133.034 42.4907 136.103 45.5587C139.172 48.6267 143.335 50.3503 147.675 50.3503H269.635C273.975 50.3503 278.138 48.6267 281.207 45.5587C284.276 42.4907 286 38.3296 286 33.9908C286 29.652 284.276 25.4909 281.207 22.4229C278.138 19.3549 273.975 17.6313 269.635 17.6313H147.675Z" fill="#E5E5E5"/>
<path d="M147.675 20.9421C144.213 20.9421 140.893 22.3169 138.445 24.764C135.997 27.2111 134.622 30.5301 134.622 33.9908C134.622 37.4515 135.997 40.7704 138.445 43.2175C140.893 45.6646 144.213 47.0394 147.675 47.0394H269.635C273.097 47.0394 276.417 45.6646 278.865 43.2175C281.313 40.7704 282.688 37.4515 282.688 33.9908C282.688 30.5301 281.313 27.2111 278.865 24.764C276.417 22.3169 273.097 20.9421 269.635 20.9421H147.675Z" fill="white"/>
<path d="M71.6545 95.3528C86.4103 95.3528 98.3722 83.3951 98.3722 68.6445C98.3722 53.894 86.4103 41.9363 71.6545 41.9363C56.8988 41.9363 44.9369 53.894 44.9369 68.6445C44.9369 83.3951 56.8988 95.3528 71.6545 95.3528Z" fill="#FFB9B9"/>
<path d="M64.8196 94.0451C64.7055 93.7939 64.5917 93.5418 64.4781 93.2888C64.5219 93.2902 64.5652 93.2965 64.6089 93.2977L64.8196 94.0451Z" fill="#2F2E41"/>
<path d="M42.7618 43.1591C44.1131 42.0816 45.6925 41.0901 47.4202 41.1458C49.1478 41.2014 50.8998 42.7613 50.5419 44.4518C53.7153 38.835 58.7663 34.5151 64.8085 32.2502C70.8507 29.9854 77.4978 29.9203 83.5832 32.0666C87.8772 33.581 92.0881 36.6107 93.0745 41.0544C93.3277 42.1952 93.382 43.4459 94.0945 44.3722C94.9929 45.5401 96.7117 45.8043 98.1269 45.3935C98.1411 45.3894 98.1552 45.3852 98.1693 45.381C98.4084 45.2994 98.6665 45.2913 98.9102 45.3579C99.1539 45.4246 99.372 45.5627 99.5363 45.7546C99.7006 45.9465 99.8035 46.1832 99.8317 46.4342C99.86 46.6851 99.8122 46.9388 99.6947 47.1624L98.4797 49.4275C100.011 49.7688 101.603 49.7349 103.118 49.3289C103.37 49.2629 103.636 49.2763 103.88 49.3675C104.124 49.4586 104.333 49.6229 104.48 49.8378C104.627 50.0527 104.703 50.3078 104.699 50.5679C104.695 50.8281 104.611 51.0807 104.458 51.291C100.451 56.7894 93.7583 60.34 86.9281 60.2982C82.0736 60.2687 77.1692 58.5962 72.4447 59.7121C70.617 60.1438 68.9091 60.9791 67.4464 62.1567C65.9838 63.3343 64.8034 64.8243 63.9919 66.5174C63.1804 68.2105 62.7584 70.0637 62.7569 71.9411C62.7553 73.8185 63.1742 75.6724 63.9829 77.3668C62.5315 75.7799 59.7258 76.1556 58.2412 77.7116C56.7566 79.2675 56.3722 81.5899 56.5218 83.735C56.7506 87.0158 58.0365 90.1072 59.392 93.116C48.0267 92.7583 37.2769 84.7885 33.6585 74.0091C30.0249 63.1845 33.833 50.2794 42.7618 43.1591Z" fill="#3A3A3A"/>
<path opacity="0.2" d="M26.297 148.851L33.7907 189.609L38.2871 190L26.297 148.851Z" fill="black"/>
<path opacity="0.2" d="M108.842 145.777L101.348 189.579L96.8516 190L108.842 145.777Z" fill="black"/>
<path d="M50.5854 29.4341C49.1486 30.0338 47.6493 29.3765 47.0206 27.8713C46.3822 26.343 46.9784 24.7917 48.4383 24.1823C49.8983 23.5729 51.3708 24.2318 52.0195 25.7847C52.6584 27.3143 52.0687 28.8149 50.5854 29.4341ZM47.8331 21.1742L46.6907 21.6511C46.4053 21.7688 46.0861 21.7751 45.7962 21.6688C45.5063 21.5626 45.267 21.3514 45.1254 21.0772L45.0689 20.9667C43.8396 18.7506 43.6989 16.0572 44.6528 12.9656C45.5364 10.1923 45.9034 8.24181 45.1653 6.47479C44.3119 4.43179 42.4896 3.79181 40.1658 4.71889C39.2645 5.0951 38.9777 5.08911 38.2684 5.79247C38.1142 5.94733 37.9302 6.06954 37.7277 6.15182C37.5251 6.23411 37.3081 6.27477 37.0895 6.27139C36.8781 6.2689 36.6695 6.2239 36.4759 6.13906C36.2824 6.05422 36.1079 5.93128 35.9629 5.77757C35.6835 5.48137 35.527 5.09022 35.5249 4.68313C35.5229 4.27604 35.6754 3.88333 35.9518 3.58432C37.144 2.33678 38.5819 1.34983 40.1748 0.685724C45.1677 -1.39842 47.6812 1.67852 48.8314 4.43209C49.9564 7.12539 49.3236 9.62433 48.3067 12.8607C47.4546 15.5499 47.5043 17.5426 48.4722 19.5239C48.5421 19.6737 48.581 19.8361 48.5865 20.0013C48.5921 20.1665 48.5641 20.3311 48.5045 20.4852C48.4448 20.6393 48.3545 20.7798 48.2392 20.8982C48.1238 21.0166 47.9857 21.1105 47.8331 21.1742L47.8331 21.1742Z" fill="#1DD29B"/>
<path d="M174.614 41.7931H150.349C150.272 41.7936 150.195 41.7789 150.124 41.7497C150.052 41.7206 149.988 41.6777 149.933 41.6233C149.878 41.569 149.835 41.5045 149.805 41.4333C149.775 41.3622 149.76 41.2859 149.76 41.2088C149.76 41.1317 149.775 41.0554 149.805 40.9843C149.835 40.9131 149.878 40.8485 149.933 40.7942C149.988 40.7399 150.052 40.697 150.124 40.6679C150.195 40.6387 150.272 40.624 150.349 40.6245H174.614C174.769 40.6256 174.916 40.6876 175.025 40.797C175.134 40.9065 175.195 41.0545 175.195 41.2088C175.195 41.3631 175.134 41.5111 175.025 41.6205C174.916 41.73 174.769 41.792 174.614 41.7931Z" fill="#1DD29B"/>
<path d="M205.396 41.9879H181.131C181.054 41.9884 180.977 41.9737 180.906 41.9446C180.835 41.9154 180.77 41.8725 180.715 41.8182C180.66 41.7639 180.617 41.6993 180.587 41.6281C180.558 41.557 180.542 41.4807 180.542 41.4036C180.542 41.3266 180.558 41.2503 180.587 41.1791C180.617 41.108 180.66 41.0434 180.715 40.9891C180.77 40.9348 180.835 40.8918 180.906 40.8627C180.977 40.8336 181.054 40.8188 181.131 40.8193H205.396C205.474 40.8188 205.55 40.8336 205.621 40.8627C205.693 40.8918 205.758 40.9348 205.812 40.9891C205.867 41.0434 205.91 41.108 205.94 41.1791C205.97 41.2503 205.985 41.3266 205.985 41.4036C205.985 41.4807 205.97 41.557 205.94 41.6281C205.91 41.6993 205.867 41.7639 205.812 41.8182C205.758 41.8725 205.693 41.9154 205.621 41.9446C205.55 41.9737 205.474 41.9884 205.396 41.9879Z" fill="#1DD29B"/>
<path d="M236.179 42.1827H211.913C211.759 42.1817 211.611 42.1196 211.502 42.0102C211.394 41.9007 211.333 41.7527 211.333 41.5984C211.333 41.4442 211.394 41.2962 211.502 41.1867C211.611 41.0772 211.759 41.0152 211.913 41.0142H236.179C236.256 41.0136 236.332 41.0284 236.404 41.0575C236.475 41.0866 236.54 41.1296 236.595 41.1839C236.649 41.2382 236.693 41.3028 236.722 41.3739C236.752 41.4451 236.767 41.5214 236.767 41.5984C236.767 41.6755 236.752 41.7518 236.722 41.823C236.693 41.8941 236.649 41.9587 236.595 42.013C236.54 42.0673 236.475 42.1102 236.404 42.1394C236.332 42.1685 236.256 42.1832 236.179 42.1827H236.179Z" fill="#1DD29B"/>
<path d="M266.961 42.3773H242.695C242.541 42.3762 242.393 42.3142 242.285 42.2047C242.176 42.0953 242.115 41.9473 242.115 41.793C242.115 41.6387 242.176 41.4907 242.285 41.3813C242.393 41.2718 242.541 41.2098 242.695 41.2087H266.961C267.115 41.2098 267.263 41.2718 267.372 41.3813C267.48 41.4907 267.541 41.6387 267.541 41.793C267.541 41.9473 267.48 42.0953 267.372 42.2047C267.263 42.3142 267.115 42.3762 266.961 42.3773Z" fill="#1DD29B"/>
<path d="M162.428 36.4161C164.919 36.4161 166.938 34.3976 166.938 31.9078C166.938 29.4179 164.919 27.3994 162.428 27.3994C159.937 27.3994 157.918 29.4179 157.918 31.9078C157.918 34.3976 159.937 36.4161 162.428 36.4161Z" fill="#1DD29B"/>
<path d="M193.396 36.4161C195.887 36.4161 197.906 34.3976 197.906 31.9078C197.906 29.4179 195.887 27.3994 193.396 27.3994C190.906 27.3994 188.886 29.4179 188.886 31.9078C188.886 34.3976 190.906 36.4161 193.396 36.4161Z" fill="#1DD29B"/>
<path d="M224.364 36.4161C226.855 36.4161 228.874 34.3976 228.874 31.9078C228.874 29.4179 226.855 27.3994 224.364 27.3994C221.874 27.3994 219.854 29.4179 219.854 31.9078C219.854 34.3976 221.874 36.4161 224.364 36.4161Z" fill="#1DD29B"/>
<path d="M255.333 36.4161C257.823 36.4161 259.842 34.3976 259.842 31.9078C259.842 29.4179 257.823 27.3994 255.333 27.3994C252.842 27.3994 250.823 29.4179 250.823 31.9078C250.823 34.3976 252.842 36.4161 255.333 36.4161Z" fill="#1DD29B"/>
</g>
<defs>
<clipPath id="clip0_240_487">
<rect width="286" height="190" fill="white"/>
</clipPath>
</defs>
</svg>
