<svg width="116" height="87" viewBox="0 0 116 87" fill="none" xmlns="http://www.w3.org/2000/svg">
<path d="M57.9705 86.9272C42.1656 86.9272 26.3572 86.9308 10.5523 86.9272C4.76809 86.9272 0.177869 82.3913 0.0798325 76.43C-0.0112016 70.8439 -0.0462147 65.2507 0.0938378 59.6647C0.209381 55.0422 2.47473 51.6935 6.60278 49.8495C7.64267 49.384 8.0033 48.8463 7.97879 47.7277C7.91927 44.9635 7.92277 42.1994 7.97879 39.4353C7.9998 38.3996 7.70919 37.8547 6.72532 37.4145C2.24715 35.4081 0.0658273 31.796 0.062326 26.7801C0.0588247 21.7318 0.0553234 16.6835 0.062326 11.6351C0.0693286 5.00264 4.37594 0.221332 10.7658 0.10225C18.5773 -0.0420911 26.3957 0.0409052 34.2106 0.0842076C36.2729 0.0950332 38.2687 0.603836 40.0053 1.83795C40.7056 2.33954 41.3288 2.32511 42.1131 2.01838C50.6493 -1.32673 58.6918 -0.287471 66.1846 5.0712C66.9759 5.63413 67.4626 5.69909 68.2994 5.10729C76.4715 -0.677193 85.2072 -1.72006 94.0971 2.86278C103.225 7.56831 107.861 15.5684 108.116 26.0765C108.291 33.225 108.179 40.3771 108.137 47.5292C108.13 48.7669 108.466 49.3696 109.639 49.9181C113.708 51.827 115.938 55.136 115.966 59.8271C115.998 65.294 115.882 70.7682 115.998 76.2315C116.127 82.3371 110.536 87.0643 105.564 86.9993C89.7029 86.7973 73.835 86.9272 57.9705 86.9272ZM79.1675 52.8807C79.1675 60.3323 79.164 67.7839 79.171 75.2319C79.1745 77.9058 80.1374 78.9018 82.7598 78.9054C89.99 78.9162 97.2238 78.9162 104.454 78.9054C107.059 78.9018 108.053 77.895 108.064 75.2175C108.081 70.5913 108.074 65.9652 108.067 61.3391C108.064 57.9687 107.367 57.265 104.044 57.2506C100.89 57.2362 100.147 56.4711 100.147 53.1874C100.144 44.2346 100.207 35.2818 100.123 26.3291C100.046 18.0727 95.116 11.3248 87.7037 9.07306C80.3999 6.85382 72.9387 9.88138 68.485 16.8783C67.4206 18.5491 67.0844 18.531 65.9675 16.7376C60.0258 7.1858 47.8307 5.55474 39.7602 13.1904C39.095 13.8183 38.6433 15.3086 37.4809 14.7024C36.483 14.1827 37.0292 12.844 36.9872 11.8697C36.8751 9.3437 35.9963 8.36579 33.5699 8.35857C26.2206 8.34414 18.8749 8.34414 11.5256 8.35857C9.0502 8.36218 8.11885 9.29679 8.10134 11.8156C8.07333 16.0195 8.09084 20.2234 8.09084 24.431C8.09084 29.6742 8.09084 29.6742 13.1327 30.0098C14.9009 30.1289 15.9443 31.0202 15.9583 32.7811C16.0108 39.991 16.0108 47.2008 15.9618 54.4107C15.9513 56.168 14.9009 57.1135 13.1677 57.2326C12.5305 57.2759 11.8863 57.2398 11.2455 57.2506C9.03969 57.2903 8.12585 58.1491 8.10834 60.3972C8.06983 65.5033 8.06983 70.613 8.10834 75.7191C8.12585 77.8481 9.17974 78.8441 11.284 78.9054C11.3436 78.9054 11.3996 78.9054 11.4591 78.9054C19.6802 78.9054 27.9048 78.9126 36.1258 78.9018C38.2617 78.8982 39.5011 77.9672 39.5221 76.1485C39.5816 70.7429 39.5711 65.3337 39.5256 59.9245C39.5116 58.4125 38.6503 57.5176 37.1727 57.2542C33.99 56.6841 32.9922 55.4824 32.9852 52.177C32.9747 44.7867 32.9817 37.3964 32.9852 30.0062C32.9852 29.5262 32.9747 29.0391 33.0552 28.57C33.1742 27.8519 33.5629 27.3575 34.3402 27.3539C35.1945 27.3503 35.6147 27.8663 35.7127 28.6782C35.7687 29.1509 35.7477 29.6381 35.7477 30.118C35.7512 35.5272 35.7477 40.9328 35.7512 46.342C35.7512 46.7642 35.7512 47.1828 35.7652 47.605C35.7932 48.4025 36.2659 48.8463 36.9732 48.8788C37.7224 48.9149 38.1461 48.3989 38.2231 47.6483C38.2792 47.1142 38.2757 46.5693 38.2757 46.0281C38.2792 40.4998 38.2757 34.9715 38.2827 29.4432C38.2827 28.4473 38.3107 27.3719 39.6342 27.3719C40.9332 27.3719 41.0032 28.3968 41.0032 29.4216C40.9962 34.9499 40.9997 40.4781 41.0032 46.0064C41.0032 46.4863 40.9997 46.9663 41.0137 47.4498C41.0382 48.287 41.4338 48.868 42.2672 48.8716C43.1285 48.8752 43.4681 48.2581 43.4856 47.4282C43.4961 46.9482 43.4996 46.4683 43.5031 45.9848C43.5031 40.5756 43.4996 35.17 43.5101 29.7608C43.5136 28.6782 43.4086 27.3539 44.9317 27.3828C46.4547 27.4116 46.2762 28.7576 46.2797 29.8221C46.2902 35.2313 46.2832 40.6369 46.2867 46.0461C46.2867 46.526 46.2797 47.0096 46.3007 47.4895C46.3392 48.3231 46.7243 48.8896 47.5821 48.868C48.3489 48.8499 48.7061 48.3087 48.7586 47.5617C48.7971 47.024 48.8006 46.4827 48.8006 45.9414C48.8041 40.4745 48.8006 35.004 48.8076 29.5371C48.8076 28.4834 48.8286 27.307 50.2536 27.3719C51.5211 27.4297 51.5561 28.5267 51.5561 29.5226C51.5596 37.2738 51.5771 45.0249 51.5456 52.776C51.5351 55.4644 50.2606 56.8717 47.7012 57.2362C45.793 57.5068 44.9422 58.3404 44.9281 60.2565C44.8826 65.4239 44.8826 70.5913 44.9281 75.7588C44.9457 77.7543 46.0661 78.8838 48.0023 78.891C55.5826 78.9198 63.163 78.9234 70.7468 78.891C72.7146 78.8838 73.7895 77.7831 73.8035 75.7551C73.842 70.5877 73.828 65.4203 73.8105 60.2529C73.8035 58.593 73.0087 57.5718 71.3701 57.2506C69.1222 56.8067 68.555 56.085 68.548 53.707C68.534 49.983 68.492 46.2554 68.5585 42.5314C68.6495 37.2196 70.4527 32.5718 73.884 28.5988C74.8154 27.5199 75.8377 26.6069 77.3643 27.1879C78.9399 27.7905 79.1955 29.1437 79.1885 30.7062C79.15 38.1001 79.1675 45.4904 79.1675 52.8807Z" fill="white"/>
</svg>
