<svg width="22" height="21" viewBox="0 0 22 21" fill="none" xmlns="http://www.w3.org/2000/svg">
<path d="M10.9901 0.0886292C5.73381 0.260504 1.31089 4.51155 0.94735 9.75842C0.562975 15.3095 4.53277 20.0001 9.78172 20.7886V13.2605H8.10048C7.34422 13.2605 6.73173 12.648 6.73173 11.8918C6.73173 11.1355 7.34422 10.523 8.10048 10.523H9.78068V8.70113C9.78068 5.68446 11.2505 4.3605 13.7578 4.3605C14.1296 4.3605 14.4474 4.36884 14.7171 4.38238C15.3796 4.41467 15.8932 4.96675 15.8932 5.6303C15.8932 6.32092 15.3338 6.88029 14.6432 6.88029H14.1828C13.1182 6.88029 12.7463 7.88967 12.7463 9.02717V10.524H14.6942C15.3099 10.524 15.7807 11.073 15.6869 11.6813L15.5744 12.4115C15.4984 12.9011 15.0776 13.2626 14.5817 13.2626H12.7463V20.8115C17.8328 20.1209 21.7546 15.773 21.7546 10.5001C21.7546 4.63134 16.9015 -0.103037 10.9901 0.0886292Z" fill="white"/>
</svg>
