<svg width="26" height="25" viewBox="0 0 26 25" fill="none" xmlns="http://www.w3.org/2000/svg">
<path d="M23.5521 10.4598H22.7131V10.4166H13.3381V14.5833H19.225C18.3662 17.0088 16.0584 18.7499 13.3381 18.7499C9.88649 18.7499 7.08805 15.9515 7.08805 12.4999C7.08805 9.04836 9.88649 6.24992 13.3381 6.24992C14.9313 6.24992 16.3808 6.85096 17.4844 7.83273L20.4308 4.88638C18.5703 3.15252 16.0818 2.08325 13.3381 2.08325C7.58545 2.08325 2.92139 6.74731 2.92139 12.4999C2.92139 18.2525 7.58545 22.9166 13.3381 22.9166C19.0907 22.9166 23.7547 18.2525 23.7547 12.4999C23.7547 11.8015 23.6828 11.1197 23.5521 10.4598Z" fill="#FFC107"/>
<path d="M4.12244 7.65148L7.54483 10.1614C8.47087 7.86867 10.7136 6.24992 13.3381 6.24992C14.9313 6.24992 16.3808 6.85096 17.4844 7.83273L20.4308 4.88638C18.5704 3.15252 16.0818 2.08325 13.3381 2.08325C9.33702 2.08325 5.86723 4.34211 4.12244 7.65148Z" fill="#FF3D00"/>
<path d="M13.338 22.9168C16.0286 22.9168 18.4734 21.8871 20.3219 20.2126L17.0979 17.4845C16.0521 18.2767 14.7521 18.7501 13.338 18.7501C10.6286 18.7501 8.32812 17.0225 7.46145 14.6116L4.06458 17.2288C5.78853 20.6022 9.28958 22.9168 13.338 22.9168Z" fill="#4CAF50"/>
<path d="M23.5521 10.46H22.713V10.4167H13.338V14.5834H19.225C18.8125 15.7485 18.063 16.7532 17.0963 17.485C17.0969 17.4845 17.0974 17.4845 17.0979 17.4839L20.3219 20.2121C20.0937 20.4194 23.7547 17.7084 23.7547 12.5001C23.7547 11.8016 23.6828 11.1199 23.5521 10.46Z" fill="#1976D2"/>
</svg>
