<svg width="68" height="88" viewBox="0 0 68 88" fill="none" xmlns="http://www.w3.org/2000/svg">
<rect x="0.978516" width="67" height="67" rx="11" fill="#ECFFF9"/>
<path d="M8.32525 87H12.3933C13.8693 87 14.9253 86.076 14.9253 84.756C14.9253 83.844 14.3733 83.1 13.4133 82.632C14.1573 82.212 14.5893 81.672 14.5893 80.808C14.5893 79.608 13.6172 78.756 12.2373 78.756H8.32525V87ZM9.53725 82.188V79.824H11.9373C12.7653 79.824 13.3533 80.328 13.3533 81.012C13.3533 81.696 12.7653 82.188 11.9373 82.188H9.53725ZM9.53725 85.932V83.22H12.1173C13.0413 83.22 13.6893 83.784 13.6893 84.576C13.6893 85.368 13.0413 85.932 12.1173 85.932H9.53725ZM17.655 81.984V80.796H16.467V87H17.655V83.472C17.763 82.392 18.675 81.684 19.959 81.684V80.652C18.891 80.652 18.051 81.168 17.655 81.984ZM23.9619 86.088C22.8939 86.088 22.1379 85.344 21.9819 84.312H26.8659C26.8659 82.092 25.7739 80.652 23.8779 80.652C22.1619 80.652 20.7819 82.02 20.7819 83.88C20.7819 85.788 22.2459 87.144 23.9739 87.144C24.8499 87.144 25.9299 86.772 26.4819 86.184L25.7379 85.416C25.3659 85.8 24.6099 86.088 23.9619 86.088ZM23.9259 81.708C24.9939 81.708 25.5819 82.404 25.7139 83.364H21.9939C22.1859 82.356 22.9659 81.708 23.9259 81.708ZM30.8469 80.652C30.1629 80.652 29.3829 80.832 28.4949 81.276L28.9269 82.152C29.4669 81.876 30.0669 81.636 30.6789 81.636C31.9149 81.636 32.2749 82.464 32.2749 83.244V83.436C31.6749 83.232 31.0149 83.1 30.4029 83.1C29.0349 83.1 27.9189 83.928 27.9189 85.164C27.9189 86.376 28.8909 87.144 30.2109 87.144C30.9669 87.144 31.8189 86.796 32.2749 86.148V87H33.4389V83.244C33.4389 81.708 32.5149 80.652 30.8469 80.652ZM30.4389 86.208C29.6589 86.208 29.0589 85.8 29.0589 85.128C29.0589 84.456 29.7549 83.988 30.5829 83.988C31.1949 83.988 31.7709 84.072 32.2749 84.228V85.056C32.0709 85.824 31.2069 86.208 30.4389 86.208ZM40.797 80.796H39.357L36.321 83.964V78.612H35.145V87H36.321V85.404L37.317 84.396L39.261 87H40.677L38.121 83.604L40.797 80.796ZM43.4101 80.112C43.4101 79.68 43.6981 79.368 44.0461 79.368C44.3101 79.368 44.5501 79.464 44.6821 79.596L45.1141 78.804C44.7781 78.528 44.3221 78.36 43.8781 78.36C42.9181 78.36 42.2461 79.056 42.2461 80.052V80.796H41.3101V81.804H42.2461V87H43.4101V81.804H44.8741V80.796H43.4101V80.112ZM48.7063 80.652C48.0223 80.652 47.2423 80.832 46.3543 81.276L46.7863 82.152C47.3263 81.876 47.9263 81.636 48.5383 81.636C49.7743 81.636 50.1343 82.464 50.1343 83.244V83.436C49.5343 83.232 48.8743 83.1 48.2623 83.1C46.8943 83.1 45.7783 83.928 45.7783 85.164C45.7783 86.376 46.7503 87.144 48.0703 87.144C48.8263 87.144 49.6783 86.796 50.1343 86.148V87H51.2983V83.244C51.2983 81.708 50.3743 80.652 48.7063 80.652ZM48.2983 86.208C47.5183 86.208 46.9183 85.8 46.9183 85.128C46.9183 84.456 47.6143 83.988 48.4423 83.988C49.0543 83.988 49.6303 84.072 50.1343 84.228V85.056C49.9303 85.824 49.0663 86.208 48.2983 86.208ZM55.2603 87.144C56.6163 87.144 57.6123 86.4 57.6123 85.224C57.6123 83.988 56.5203 83.652 55.5003 83.352C54.4563 83.028 54.0723 82.884 54.0723 82.404C54.0723 81.936 54.5523 81.672 55.1643 81.672C55.7043 81.672 56.3283 81.876 56.9283 82.248L57.4563 81.372C56.7843 80.928 55.9683 80.652 55.1643 80.652C53.8443 80.652 52.8963 81.396 52.9083 82.536C52.9083 83.544 53.6163 83.952 55.0443 84.348C55.8123 84.564 56.4483 84.744 56.4483 85.32C56.4483 85.8 55.9683 86.124 55.2723 86.124C54.5403 86.124 53.8323 85.848 53.1723 85.368L52.6083 86.22C53.3523 86.82 54.3483 87.144 55.2603 87.144ZM61.8969 85.884C61.7649 86.016 61.5249 86.112 61.2609 86.112C60.9129 86.112 60.6249 85.8 60.6249 85.368V81.804H62.0889V80.796H60.6249V79.092H59.4609V80.796H58.5249V81.804H59.4609V85.452C59.4609 86.448 60.1329 87.144 61.0929 87.144C61.5369 87.144 61.9929 86.976 62.3289 86.7L61.8969 85.884Z" fill="#949494"/>
<g clip-path="url(#clip0_814_161)">
<path d="M54.9785 37.5505C54.925 37.8765 54.8716 38.192 54.8181 38.518C54.6257 39.7905 54.1232 40.9473 53.4711 42.02C52.7975 41.0945 52.1561 40.1586 51.4505 39.2857C50.7342 38.4023 49.9431 37.5925 49.1199 36.6671C49.2482 36.3936 49.4727 35.8573 49.7506 35.342C49.8255 35.2053 50.0179 35.0475 50.1676 35.0265C51.6109 34.8687 53.0541 34.732 54.4974 34.6163C54.615 34.6058 54.7861 34.8162 54.8823 34.9529C54.9464 35.0475 54.9464 35.2053 54.9678 35.3315C54.9785 36.0781 54.9785 36.8143 54.9785 37.5505Z" fill="#05CE91"/>
<path d="M36.8895 47.1313C35.6601 48.2881 34.2275 48.9191 32.5597 48.9611C31.0523 49.0032 29.5449 48.9717 28.0375 48.9717C24.2636 48.9717 21.3877 46.2479 21.3343 42.5355C21.2808 38.7285 21.3236 34.9215 21.3236 31.1145C21.3236 30.473 21.6015 30.2416 22.3285 30.2416C27.118 30.2416 31.9076 30.2416 36.6971 30.2416C37.1675 30.2416 37.6272 30.2311 38.0976 30.2522C38.6108 30.2732 38.8887 30.5466 38.8887 31.0514C38.8994 33.2914 38.8887 35.542 38.8887 37.782C38.8887 37.8031 38.878 37.8346 38.8673 37.8556C38.5359 37.9293 38.2045 38.0344 37.8731 38.0765C37.7769 38.087 37.6486 37.9713 37.5631 37.8872C37.0499 37.3193 36.5795 36.7093 36.0236 36.1835C35.3393 35.542 34.5055 35.4158 33.6074 35.6997C32.8163 35.9521 32.41 36.499 32.3245 37.2877C32.2283 38.2342 32.5169 39.1071 32.8377 39.9695C32.8911 40.1272 32.9553 40.2955 33.0408 40.4427C33.2974 40.9475 33.4791 41.4208 33.2119 42.0202C32.998 42.4829 33.2225 42.9667 33.4898 43.3979C34.3772 44.8386 35.489 46.0796 36.8895 47.1313Z" fill="#05CE91"/>
<path d="M41.3796 44.8595C41.4117 42.3566 41.6362 40.5687 42.4273 38.8966C42.5556 38.6127 42.7374 38.4444 43.0367 38.3392C44.031 37.9922 45.0039 37.5925 45.9874 37.256C46.1905 37.1824 46.4685 37.1929 46.6609 37.2771C48.3073 38.0132 49.6009 39.1805 50.6273 40.6108C51.4505 41.7466 52.1347 42.9875 52.883 44.1759C53.0434 44.4283 53.0006 44.6176 52.8296 44.849C51.814 46.2161 50.4455 47.1206 48.9167 47.8147C47.2276 48.5824 45.4743 49.0661 43.5927 48.9925C43.1436 48.9715 42.6946 48.8768 42.2456 48.8242C41.9997 48.7927 41.8928 48.6455 41.8607 48.4141C41.679 46.9838 41.4759 45.5851 41.3796 44.8595Z" fill="#05CE91"/>
<path d="M40.1287 47.089C39.0703 46.742 38.1295 46.2898 37.317 45.6272C36.3014 44.807 35.4675 43.8184 34.7726 42.7247C34.5588 42.3987 34.5801 42.1463 34.9009 41.9149C36.0341 41.1051 37.1674 40.3059 38.3006 39.4961C38.5572 39.3068 38.8031 39.3278 39.081 39.4751C39.4445 39.6644 39.8187 39.8431 40.2036 39.9904C40.4067 40.064 40.4388 40.1586 40.396 40.3374C39.947 42.2199 39.8294 44.1234 40.0218 46.0374C40.0432 46.3739 40.086 46.7104 40.1287 47.089Z" fill="#05CE91"/>
<path d="M19.8482 34.1642C19.1319 34.059 18.4691 33.9013 17.7956 33.8697C16.8548 33.8276 16.224 34.2588 15.8819 35.1317C15.7215 35.5418 15.6146 35.9835 15.5612 36.4252C15.4115 37.7608 15.3366 39.0964 15.6788 40.411C15.775 40.8001 15.946 41.1787 16.1492 41.5363C16.5554 42.2409 17.1969 42.5774 18.0201 42.4933C18.6081 42.4302 19.1961 42.3145 19.8161 42.2199C19.8482 42.6511 19.8803 43.1138 19.9124 43.5765C17.2076 44.502 15.219 43.7658 14.3852 41.2629C13.9468 39.9693 13.9254 38.6337 14.0324 37.2876C14.0965 36.562 14.1927 35.8258 14.3852 35.1212C14.9518 33.081 16.3309 32.1976 18.4584 32.4605C18.8433 32.5026 19.2174 32.5867 19.5916 32.6813C19.6878 32.7129 19.8161 32.8601 19.8268 32.9653C19.8696 33.3754 19.8482 33.7961 19.8482 34.1642Z" fill="#05CE91"/>
<path d="M27.1716 22.3126C27.1502 23.2065 26.8722 23.9322 26.3163 24.5421C25.9421 24.9523 25.7283 25.4045 25.6962 25.9513C25.6642 26.393 25.3434 26.677 24.9479 26.6559C24.5523 26.6349 24.253 26.3299 24.253 25.8988C24.253 25.11 24.5202 24.4159 25.0441 23.806C25.9528 22.7438 25.9528 21.9445 25.0441 20.8718C24.5309 20.2829 24.2637 19.5993 24.253 18.8211C24.2423 18.3584 24.5309 18.0429 24.9479 18.0218C25.3648 18.0008 25.6642 18.2848 25.7069 18.758C25.7497 19.2733 25.9314 19.715 26.2949 20.0936C26.8936 20.7456 27.1716 21.5239 27.1716 22.3126Z" fill="#05CE91"/>
<path d="M35.9488 21.9755C35.9594 23.1639 35.6815 23.9001 35.1149 24.5206C34.73 24.9412 34.5055 25.3934 34.4841 25.9613C34.4627 26.382 34.1206 26.6764 33.725 26.6554C33.3188 26.6344 33.0408 26.3189 33.0408 25.8772C33.0408 25.0884 33.3188 24.3944 33.832 23.7844C34.73 22.7222 34.73 21.923 33.8213 20.8503C33.3081 20.2508 33.0301 19.5462 33.0408 18.7575C33.0408 18.3263 33.3402 18.0108 33.7464 18.0003C34.1527 17.9898 34.4734 18.2737 34.4948 18.7154C34.5162 19.2728 34.7407 19.7145 35.1149 20.1246C35.6815 20.7872 35.9381 21.5023 35.9488 21.9755Z" fill="#05CE91"/>
<path d="M31.5547 22.3546C31.5547 23.1854 31.2767 23.9216 30.7101 24.5421C30.3359 24.9522 30.1221 25.4044 30.09 25.9513C30.0686 26.3825 29.7372 26.6769 29.3416 26.6664C28.9354 26.6559 28.6467 26.3404 28.6467 25.9092C28.6467 25.1205 28.914 24.4264 29.4272 23.8164C30.3359 22.7543 30.3359 21.934 29.4379 20.8823C28.9354 20.2934 28.6574 19.6098 28.6467 18.8316C28.6467 18.3689 28.914 18.0428 29.3309 18.0218C29.7479 18.0008 30.0686 18.2952 30.09 18.758C30.1221 19.2628 30.3038 19.6939 30.6459 20.0725C31.2981 20.7982 31.5547 21.4818 31.5547 22.3546Z" fill="#05CE91"/>
<path d="M36.494 38.8967C35.8418 39.3699 35.2218 39.8116 34.5589 40.2954C34.1633 39.4015 33.7571 38.5181 33.7678 37.5295C33.7678 37.1509 34.0457 36.9511 34.4948 37.0142C34.7086 37.0457 34.9224 37.1614 35.0935 37.2876C35.2859 37.4243 35.4463 37.6136 35.5959 37.7924C35.906 38.1605 36.1946 38.5286 36.494 38.8967Z" fill="#05CE91"/>
<path d="M51.2688 33.3755C51.3116 32.6394 51.3329 31.9453 51.3971 31.2617C51.4078 31.0829 51.4826 30.9041 51.5788 30.7464C51.9316 30.1575 52.4448 30.1364 52.7335 30.7359C53.1076 31.5036 53.3856 32.3239 53.7277 33.1757C52.8511 33.2388 52.1027 33.3019 51.2688 33.3755Z" fill="#05CE91"/>
</g>
<defs>
<clipPath id="clip0_814_161">
<rect width="41" height="31" fill="white" transform="translate(13.9785 18)"/>
</clipPath>
</defs>
</svg>
