<svg width="88" height="88" viewBox="0 0 88 88" fill="none" xmlns="http://www.w3.org/2000/svg">
<rect x="10.9785" width="68" height="67" rx="11" fill="#ECFFF9"/>
<g clip-path="url(#clip0_814_176)">
<path d="M61.9784 30.4871C61.8808 31.0193 61.8187 31.5604 61.6857 32.0749C60.6301 35.9512 58.1287 38.3906 54.2612 39.4461C52.8508 39.8276 51.4493 40.2001 50.0478 40.617C48.1406 41.1847 46.5262 42.2492 45.1159 43.6241C44.628 44.1031 44.1667 44.6087 43.7055 45.0877C41.0887 42.4621 38.5252 39.8985 35.8552 37.2286C35.9439 37.1842 36.0859 37.131 36.1834 37.0334C37.1769 36.0577 38.1704 35.0731 38.9687 33.9199C39.9356 32.5184 40.4323 30.9306 40.867 29.3162C41.2218 27.9945 41.479 26.6285 41.9758 25.36C43.4837 21.599 46.34 19.5056 50.3582 19.0621C55.8578 18.4589 60.8962 22.424 61.8365 27.9147C61.8897 28.2163 61.934 28.5179 61.9784 28.8195C61.9784 29.3783 61.9784 29.9283 61.9784 30.4871Z" fill="#05CE91"/>
<path d="M33.9567 52.9999C33.8414 52.9644 33.7349 52.9201 33.6196 52.8935C32.706 52.6362 32.0496 52.0774 31.7214 51.1904C31.3754 50.2413 30.7545 49.6203 29.8054 49.2655C28.0845 48.618 27.4547 46.5778 28.4393 44.9191C29.4417 43.2337 31.6149 42.7015 33.0785 43.7748C33.2825 43.9256 33.46 44.1119 33.6817 44.3159C34.1962 43.7925 34.7284 43.2603 35.2518 42.737C35.7751 42.2136 36.2985 41.6814 36.7952 41.1758C37.8064 42.187 38.791 43.1805 39.8022 44.1917C38.7822 45.2029 37.7266 46.2496 36.6444 47.3229C37.1766 47.7664 37.5226 48.2809 37.6734 48.9196C38.0814 50.6936 36.875 52.5387 35.0655 52.929C34.9768 52.9467 34.8969 52.9733 34.8171 52.9999C34.5333 52.9999 34.2494 52.9999 33.9567 52.9999Z" fill="#05CE91"/>
</g>
<path d="M26.4635 87.144C27.6395 87.144 28.7195 86.64 29.4995 85.848L28.6475 85.032C28.0955 85.632 27.3155 86.028 26.4635 86.028C24.8195 86.028 23.4275 84.588 23.4275 82.872C23.4275 81.168 24.8195 79.728 26.4635 79.728C27.3155 79.728 28.0955 80.124 28.6475 80.724L29.4995 79.908C28.7195 79.104 27.6395 78.612 26.4635 78.612C24.1475 78.612 22.1795 80.556 22.1795 82.872C22.1795 85.188 24.1475 87.144 26.4635 87.144ZM33.8384 80.652C32.9864 80.652 32.2304 81.096 31.8584 81.72V78.612H30.6824V87H31.8584V83.148C31.8584 82.344 32.6384 81.684 33.5744 81.684C34.4144 81.684 35.0024 82.332 35.0024 83.256V87H36.1664V83.052C36.1664 81.648 35.2064 80.652 33.8384 80.652ZM38.454 79.764C38.838 79.764 39.162 79.428 39.162 79.044C39.162 78.672 38.838 78.336 38.454 78.336C38.046 78.336 37.734 78.672 37.734 79.044C37.734 79.428 38.046 79.764 38.454 79.764ZM37.854 87H39.042V80.796H37.854V87ZM43.6885 87.144C44.6125 87.144 45.4165 86.76 46.0165 86.148L45.2125 85.416C44.8285 85.848 44.2765 86.112 43.7005 86.112C42.5605 86.112 41.6245 85.104 41.6245 83.892C41.6245 82.692 42.5605 81.684 43.6885 81.684C44.2645 81.684 44.8045 81.936 45.1765 82.356L45.9805 81.612C45.3925 81.024 44.5885 80.652 43.7005 80.652C41.9245 80.652 40.4245 82.128 40.4245 83.892C40.4245 85.656 41.9245 87.144 43.6885 87.144ZM52.9278 80.796H51.4878L48.4518 83.964V78.612H47.2758V87H48.4518V85.404L49.4478 84.396L51.3918 87H52.8078L50.2518 83.604L52.9278 80.796ZM56.7529 86.088C55.6849 86.088 54.9289 85.344 54.7729 84.312H59.6569C59.6569 82.092 58.5649 80.652 56.6689 80.652C54.9529 80.652 53.5729 82.02 53.5729 83.88C53.5729 85.788 55.0369 87.144 56.7649 87.144C57.6409 87.144 58.7209 86.772 59.2729 86.184L58.5289 85.416C58.1569 85.8 57.4009 86.088 56.7529 86.088ZM56.7169 81.708C57.7849 81.708 58.3729 82.404 58.5049 83.364H54.7849C54.9769 82.356 55.7569 81.708 56.7169 81.708ZM64.1899 80.652C63.3499 80.652 62.5939 81.084 62.2219 81.696V80.796H61.0339V87H62.2219V82.98C62.3179 82.248 63.0619 81.684 63.9259 81.684C64.7659 81.684 65.3539 82.332 65.3539 83.256V87H66.5179V83.052C66.5179 81.648 65.5579 80.652 64.1899 80.652Z" fill="#949494"/>
<defs>
<clipPath id="clip0_814_176">
<rect width="34" height="34" fill="white" transform="translate(27.9785 19)"/>
</clipPath>
</defs>
</svg>
