<svg width="68" height="88" viewBox="0 0 68 88" fill="none" xmlns="http://www.w3.org/2000/svg">
<rect x="0.978516" width="67" height="67" rx="11" fill="#ECFFF9"/>
<g clip-path="url(#clip0_814_183)">
<path d="M28.5197 33.0545C28.3853 32.9602 28.2388 32.8776 28.1167 32.7597C23.9041 28.6916 19.6915 24.6235 15.479 20.5555C15.3568 20.4375 15.2347 20.3314 15.1371 20.2017C14.9051 19.9187 14.9295 19.4942 15.1859 19.2348C15.4667 18.9518 15.8819 18.9164 16.2238 19.1641C16.3581 19.2584 16.468 19.3763 16.5901 19.4942C21.2178 23.9632 25.8456 28.444 30.4733 32.9248C30.6809 33.1253 30.8885 33.2078 31.1937 33.2078C32.3293 33.196 33.4649 33.2078 34.6004 33.2078C34.6493 33.1488 34.6981 33.0781 34.747 33.0191C34.5882 32.9366 34.4051 32.8776 34.283 32.7597C30.0582 28.6798 25.8456 24.6118 21.633 20.5437C21.0713 20.0013 20.9858 19.5885 21.3644 19.223C21.7429 18.8575 22.1702 18.9282 22.7319 19.4706C27.3597 23.9396 31.9996 28.4086 36.6274 32.8894C36.8716 33.1253 37.1036 33.196 37.421 33.196C42.5738 33.1842 47.7144 33.196 52.8672 33.196C53.7585 33.196 53.9783 33.3965 53.9783 34.2572C53.9783 35.6604 54.0027 37.0518 53.9661 38.455C53.8318 44.8343 48.4714 49.94 41.8656 49.9872C37.0303 50.0108 32.2072 50.0108 27.3719 49.9872C20.7294 49.94 15.3446 44.7164 15.2714 38.3135C15.2592 36.9575 15.2714 35.6015 15.2714 34.2572C15.2714 33.42 15.4912 33.2078 16.3459 33.2078C20.2166 33.2078 24.0873 33.2078 27.958 33.2078C28.1167 33.2078 28.2877 33.2078 28.4464 33.2078C28.4708 33.1488 28.4952 33.1017 28.5197 33.0545Z" fill="#05CE91"/>
</g>
<path d="M16.487 87.144C17.663 87.144 18.743 86.64 19.523 85.848L18.671 85.032C18.119 85.632 17.339 86.028 16.487 86.028C14.843 86.028 13.451 84.588 13.451 82.872C13.451 81.168 14.843 79.728 16.487 79.728C17.339 79.728 18.119 80.124 18.671 80.724L19.523 79.908C18.743 79.104 17.663 78.612 16.487 78.612C14.171 78.612 12.203 80.556 12.203 82.872C12.203 85.188 14.171 87.144 16.487 87.144ZM23.8618 80.652C23.0098 80.652 22.2538 81.096 21.8818 81.72V78.612H20.7058V87H21.8818V83.148C21.8818 82.344 22.6618 81.684 23.5978 81.684C24.4378 81.684 25.0258 82.332 25.0258 83.256V87H26.1898V83.052C26.1898 81.648 25.2298 80.652 23.8618 80.652ZM28.4774 79.764C28.8614 79.764 29.1854 79.428 29.1854 79.044C29.1854 78.672 28.8614 78.336 28.4774 78.336C28.0694 78.336 27.7574 78.672 27.7574 79.044C27.7574 79.428 28.0694 79.764 28.4774 79.764ZM27.8774 87H29.0654V80.796H27.8774V87ZM33.9399 80.652C33.0999 80.652 32.3439 81.084 31.9719 81.696V80.796H30.7839V87H31.9719V82.98C32.0679 82.248 32.8119 81.684 33.6759 81.684C34.5159 81.684 35.1039 82.332 35.1039 83.256V87H36.2679V83.052C36.2679 81.648 35.3079 80.652 33.9399 80.652ZM40.8115 86.088C39.7435 86.088 38.9875 85.344 38.8315 84.312H43.7155C43.7155 82.092 42.6235 80.652 40.7275 80.652C39.0115 80.652 37.6315 82.02 37.6315 83.88C37.6315 85.788 39.0955 87.144 40.8235 87.144C41.6995 87.144 42.7795 86.772 43.3315 86.184L42.5875 85.416C42.2155 85.8 41.4595 86.088 40.8115 86.088ZM40.7755 81.708C41.8435 81.708 42.4315 82.404 42.5635 83.364H38.8435C39.0355 82.356 39.8155 81.708 40.7755 81.708ZM47.3365 87.144C48.6925 87.144 49.6885 86.4 49.6885 85.224C49.6885 83.988 48.5965 83.652 47.5765 83.352C46.5325 83.028 46.1485 82.884 46.1485 82.404C46.1485 81.936 46.6285 81.672 47.2405 81.672C47.7805 81.672 48.4045 81.876 49.0045 82.248L49.5325 81.372C48.8605 80.928 48.0445 80.652 47.2405 80.652C45.9205 80.652 44.9725 81.396 44.9845 82.536C44.9845 83.544 45.6925 83.952 47.1205 84.348C47.8885 84.564 48.5245 84.744 48.5245 85.32C48.5245 85.8 48.0445 86.124 47.3485 86.124C46.6165 86.124 45.9085 85.848 45.2485 85.368L44.6845 86.22C45.4285 86.82 46.4245 87.144 47.3365 87.144ZM53.9131 86.088C52.8451 86.088 52.0891 85.344 51.9331 84.312H56.8171C56.8171 82.092 55.7251 80.652 53.8291 80.652C52.1131 80.652 50.7331 82.02 50.7331 83.88C50.7331 85.788 52.1971 87.144 53.9251 87.144C54.8011 87.144 55.8811 86.772 56.4331 86.184L55.6891 85.416C55.3171 85.8 54.5611 86.088 53.9131 86.088ZM53.8771 81.708C54.9451 81.708 55.5331 82.404 55.6651 83.364H51.9451C52.1371 82.356 52.9171 81.708 53.8771 81.708Z" fill="#949494"/>
<defs>
<clipPath id="clip0_814_183">
<rect width="39" height="31" fill="white" transform="translate(14.9785 19)"/>
</clipPath>
</defs>
</svg>
