<svg width="68" height="88" viewBox="0 0 68 88" fill="none" xmlns="http://www.w3.org/2000/svg">
<rect x="0.978516" width="67" height="67" rx="11" fill="#ECFFF9"/>
<path d="M18.1933 87H19.4053V78.756H18.1933V87ZM24.0844 85.884C23.9524 86.016 23.7124 86.112 23.4484 86.112C23.1004 86.112 22.8124 85.8 22.8124 85.368V81.804H24.2764V80.796H22.8124V79.092H21.6484V80.796H20.7124V81.804H21.6484V85.452C21.6484 86.448 22.3204 87.144 23.2804 87.144C23.7244 87.144 24.1804 86.976 24.5164 86.7L24.0844 85.884ZM28.3313 80.652C27.6473 80.652 26.8673 80.832 25.9793 81.276L26.4113 82.152C26.9513 81.876 27.5513 81.636 28.1633 81.636C29.3993 81.636 29.7593 82.464 29.7593 83.244V83.436C29.1593 83.232 28.4993 83.1 27.8873 83.1C26.5193 83.1 25.4033 83.928 25.4033 85.164C25.4033 86.376 26.3753 87.144 27.6953 87.144C28.4513 87.144 29.3033 86.796 29.7593 86.148V87H30.9233V83.244C30.9233 81.708 29.9993 80.652 28.3313 80.652ZM27.9233 86.208C27.1433 86.208 26.5433 85.8 26.5433 85.128C26.5433 84.456 27.2393 83.988 28.0673 83.988C28.6793 83.988 29.2553 84.072 29.7593 84.228V85.056C29.5553 85.824 28.6913 86.208 27.9233 86.208ZM32.6413 87H33.8173V78.612H32.6413V87ZM36.1356 79.764C36.5196 79.764 36.8436 79.428 36.8436 79.044C36.8436 78.672 36.5196 78.336 36.1356 78.336C35.7276 78.336 35.4156 78.672 35.4156 79.044C35.4156 79.428 35.7276 79.764 36.1356 79.764ZM35.5356 87H36.7236V80.796H35.5356V87ZM41.0461 80.652C40.3621 80.652 39.5821 80.832 38.6941 81.276L39.1261 82.152C39.6661 81.876 40.2661 81.636 40.8781 81.636C42.1141 81.636 42.4741 82.464 42.4741 83.244V83.436C41.8741 83.232 41.2141 83.1 40.6021 83.1C39.2341 83.1 38.1181 83.928 38.1181 85.164C38.1181 86.376 39.0901 87.144 40.4101 87.144C41.1661 87.144 42.0181 86.796 42.4741 86.148V87H43.6381V83.244C43.6381 81.708 42.7141 80.652 41.0461 80.652ZM40.6381 86.208C39.8581 86.208 39.2581 85.8 39.2581 85.128C39.2581 84.456 39.9541 83.988 40.7821 83.988C41.3941 83.988 41.9701 84.072 42.4741 84.228V85.056C42.2701 85.824 41.4061 86.208 40.6381 86.208ZM48.5122 80.652C47.6722 80.652 46.9162 81.084 46.5442 81.696V80.796H45.3562V87H46.5442V82.98C46.6402 82.248 47.3842 81.684 48.2482 81.684C49.0882 81.684 49.6762 82.332 49.6762 83.256V87H50.8402V83.052C50.8402 81.648 49.8802 80.652 48.5122 80.652Z" fill="#949494"/>
<g clip-path="url(#clip0_814_154)">
<path d="M34.4289 34.5498C34.6509 34.5498 34.8095 34.5498 34.9681 34.5498C39.5992 34.5498 44.2302 34.5498 48.8613 34.5498C49.8763 34.5498 50.3627 35.0467 50.3415 36.0617C50.2041 44.4885 43.9659 51.6043 35.6554 52.8096C26.6471 54.1207 18.1885 48.1786 16.3276 39.2443C14.4773 30.3099 20.134 21.3333 28.9837 19.1552C30.2948 18.8274 31.627 18.6583 32.9698 18.6371C33.9108 18.6266 34.4183 19.1235 34.4183 20.0645C34.4183 24.7167 34.4183 29.3795 34.4183 34.0317C34.4289 34.2008 34.4289 34.3489 34.4289 34.5498ZM45.7422 37.0979C45.3299 40.5236 43.839 43.3678 41.1852 45.5564C38.5102 47.7557 35.4228 48.6967 31.9759 48.3795C26.1078 47.8402 21.2759 43.2515 20.6098 37.1719C20.3031 34.3277 20.8741 31.6527 22.3966 29.2209C24.5959 25.7212 27.789 23.7651 31.8596 23.2259C31.8596 22.5492 31.8596 21.8937 31.8596 21.2487C24.7545 21.7774 18.1251 28.0578 18.548 36.5692C18.9709 44.9961 26.4144 51.3082 34.799 50.3567C43.0038 49.4262 47.5291 42.3845 47.6877 37.0979C47.0533 37.0979 46.4295 37.0979 45.7422 37.0979ZM25.8435 34.3806C26.4144 34.3912 26.9008 33.9154 26.9114 33.3444C26.922 32.7735 26.4356 32.2871 25.8646 32.2871C25.3043 32.2871 24.8285 32.7523 24.8179 33.3127C24.7862 33.8731 25.2725 34.37 25.8435 34.3806ZM35.4545 39.8892C35.4439 39.3183 34.947 38.8425 34.3655 38.8636C33.7945 38.8848 33.3293 39.35 33.3399 39.9104C33.3399 40.4813 33.8368 40.9677 34.4078 40.9571C34.9787 40.9571 35.4651 40.4602 35.4545 39.8892ZM39.0811 40.3227C39.6626 40.3227 40.1384 39.8363 40.1279 39.2654C40.1173 38.6839 39.6309 38.2187 39.06 38.2292C38.489 38.2398 38.0344 38.705 38.0344 39.2654C38.0344 39.8469 38.5102 40.3227 39.0811 40.3227ZM29.1529 35.1841C28.5714 35.1841 28.0956 35.6494 28.1062 36.2309C28.1062 36.8124 28.5714 37.2776 29.1635 37.2671C29.745 37.2565 30.1891 36.8124 30.1891 36.2415C30.1996 35.6494 29.745 35.1841 29.1529 35.1841ZM30.1891 41.3166C30.1785 40.7351 29.7027 40.2698 29.1212 40.2804C28.5608 40.291 28.0956 40.7562 28.0956 41.3272C28.0956 41.9087 28.5714 42.3845 29.1423 42.3845C29.7344 42.3739 30.1996 41.8981 30.1891 41.3166ZM33.8791 43.4524C33.8897 42.8708 33.4245 42.3951 32.8429 42.3845C32.2614 42.3739 31.7962 42.8497 31.7962 43.4312C31.7962 44.0022 32.2403 44.4568 32.8112 44.4674C33.3927 44.4885 33.8685 44.0339 33.8791 43.4524ZM30.4957 29.8976C30.5063 29.3055 30.0516 28.8402 29.4595 28.8402C28.8886 28.8402 28.4233 29.2843 28.4128 29.8447C28.3916 30.4368 28.8463 30.9126 29.4278 30.9232C30.0199 30.9337 30.4851 30.4897 30.4957 29.8976Z" fill="#05CE91"/>
<path d="M44.7694 33.4395C42.179 33.4395 39.5992 33.4395 37.0087 33.4395C36.0466 33.4395 35.5391 32.9426 35.5391 31.9804C35.5391 26.8102 35.5391 21.6399 35.5391 16.4696C35.5391 15.4863 36.0466 14.9893 37.0299 14.9999C45.0972 15.0951 52.0755 20.868 53.6298 28.7662C53.8412 29.8235 53.8941 30.9126 53.9681 31.9804C54.0315 32.9215 53.4817 33.4395 52.5513 33.4395C49.9609 33.4395 47.3704 33.4395 44.7694 33.4395ZM38.0978 19.5358C44.558 20.6883 48.3115 24.4735 49.4428 30.8808C50.0772 30.8808 50.7221 30.8808 51.3671 30.8808C50.9125 23.7651 44.706 17.971 38.0978 17.6326C38.0978 18.2776 38.0978 18.912 38.0978 19.5358ZM40.2864 26.7996C40.8679 26.789 41.3332 26.3132 41.3226 25.7317C41.312 25.1502 40.8362 24.7061 40.2441 24.7167C39.6732 24.7272 39.2291 25.1925 39.2291 25.7528C39.2291 26.3449 39.7049 26.8102 40.2864 26.7996ZM44.2725 28.301C44.2725 27.7089 43.8073 27.2542 43.2152 27.2648C42.6337 27.2754 42.179 27.7512 42.1896 28.3327C42.2002 28.9036 42.6548 29.3477 43.2363 29.3477C43.8284 29.3477 44.2831 28.8931 44.2725 28.301Z" fill="#05CE91"/>
</g>
<defs>
<clipPath id="clip0_814_154">
<rect width="38" height="38" fill="white" transform="translate(15.9785 15)"/>
</clipPath>
</defs>
</svg>
