<svg width="14" height="18" viewBox="0 0 14 18" fill="none" xmlns="http://www.w3.org/2000/svg">
<path d="M4.42857 0.904297L2.71429 0.904296C2.25963 0.904296 1.82359 1.08491 1.5021 1.4064C1.18061 1.72789 1 2.16393 1 2.61858L1 14.6186C1 15.0732 1.18061 15.5093 1.5021 15.8308C1.82359 16.1523 2.25963 16.3329 2.71429 16.3329L4.42857 16.3329M9.57143 0.904297L11.2857 0.904297C11.7404 0.904297 12.1764 1.08491 12.4979 1.4064C12.8194 1.72789 13 2.16393 13 2.61858L13 14.6186C13 15.0732 12.8194 15.5093 12.4979 15.8308C12.1764 16.1523 11.7404 16.3329 11.2857 16.3329L9.57143 16.3329L9.57143 0.904297Z" stroke="#05CE91" stroke-width="1.5" stroke-linecap="round" stroke-linejoin="round"/>
<path d="M4.42868 16.3329C4.42868 15.6509 4.69959 14.9969 5.18183 14.5146C5.66407 14.0324 6.31812 13.7615 7.0001 13.7615C7.68209 13.7615 8.33614 14.0324 8.81838 14.5146C9.30062 14.9969 9.57153 15.6509 9.57153 16.3329" stroke="#05CE91" stroke-width="1.5" stroke-linecap="round" stroke-linejoin="round"/>
<path d="M4.42868 0.904297C4.42868 1.58628 4.69959 2.24033 5.18183 2.72257C5.66407 3.20481 6.31812 3.47572 7.0001 3.47573C7.68209 3.47573 8.33614 3.20481 8.81838 2.72257C9.30062 2.24033 9.57153 1.58628 9.57153 0.904297" stroke="#05CE91" stroke-width="1.5" stroke-linecap="round" stroke-linejoin="round"/>
<path d="M13 9.47583L11.2857 9.47583" stroke="#05CE91" stroke-width="1.5" stroke-linecap="round" stroke-linejoin="round"/>
<path d="M2.71436 9.47583L1.00007 9.47583" stroke="#05CE91" stroke-width="1.5" stroke-linecap="round" stroke-linejoin="round"/>
<path d="M7.85718 9.47583L6.14289 9.47583" stroke="#05CE91" stroke-width="1.5" stroke-linecap="round" stroke-linejoin="round"/>
</svg>
