<svg width="172" height="164" viewBox="0 0 172 164" fill="none" xmlns="http://www.w3.org/2000/svg">
<path d="M134.575 29.925C142.868 23.7825 154.545 21.4278 163.681 26.2198C153.396 30.6971 145.021 38.6776 140.04 48.7493C138.133 52.6405 136.416 57.1676 132.481 58.966C130.033 60.0851 127.143 59.869 124.608 58.9654C122.072 58.0617 119.817 56.5267 117.593 55.0079L116.926 54.9274C120.884 45.3814 126.281 36.0675 134.575 29.925Z" fill="#F0F0F0"/>
<path d="M163.608 26.4238C155.077 26.6918 146.848 29.6477 140.089 34.8718C138.614 35.9705 137.32 37.2955 136.257 38.7979C135.268 40.2951 134.697 42.0304 134.603 43.8236C134.483 45.4938 134.552 47.2162 134.028 48.8279C133.748 49.6489 133.298 50.4012 132.707 51.0355C132.116 51.6698 131.399 52.1717 130.601 52.5084C128.635 53.3992 126.467 53.5287 124.343 53.5815C121.984 53.64 119.533 53.6634 117.388 54.7769C117.128 54.9119 116.935 54.4996 117.194 54.3649C120.926 52.4276 125.287 53.6916 129.21 52.5386C131.04 52.0006 132.72 50.9063 133.455 49.0754C134.098 47.4744 134.028 45.6981 134.136 44.0059C134.201 42.2553 134.694 40.5474 135.57 39.0315C136.554 37.4797 137.794 36.107 139.237 34.9722C142.445 32.3655 146.042 30.2808 149.897 28.7945C154.286 27.0736 158.937 26.1183 163.648 25.9699C163.939 25.9608 163.898 26.4148 163.608 26.4238V26.4238Z" fill="white"/>
<path d="M142.166 33.0612C141.446 31.8052 141.194 30.3334 141.457 28.9087C141.719 27.4839 142.478 26.199 143.597 25.2833C143.825 25.0989 144.121 25.4442 143.894 25.6289C142.849 26.4797 142.143 27.6766 141.901 29.0039C141.66 30.3311 141.9 31.7011 142.577 32.8667C142.724 33.1202 142.312 33.3132 142.166 33.0612V33.0612Z" fill="white"/>
<path d="M134.553 42.9686C137.398 43.7658 140.438 43.4587 143.067 42.1085C143.328 41.9745 143.522 42.3867 143.261 42.5205C140.523 43.9205 137.359 44.2336 134.4 43.3974C134.118 43.3176 134.273 42.8891 134.553 42.9686Z" fill="white"/>
<path d="M154.264 27.6773C154.442 28.2215 154.752 28.7129 155.166 29.1075C155.58 29.502 156.085 29.7873 156.636 29.9377C156.919 30.014 156.763 30.4423 156.482 30.3666C155.874 30.1975 155.317 29.8818 154.859 29.4469C154.4 29.012 154.055 28.4712 153.853 27.8718C153.83 27.8169 153.828 27.755 153.848 27.6987C153.868 27.6423 153.909 27.5958 153.962 27.5685C154.016 27.5431 154.079 27.5402 154.135 27.5606C154.192 27.5809 154.238 27.6229 154.264 27.6773H154.264Z" fill="white"/>
<path d="M170.925 60.4598C170.747 60.4172 170.569 60.3746 170.388 60.3345C167.993 59.7744 165.556 59.4102 163.102 59.2457C162.912 59.23 162.72 59.2169 162.53 59.2067C156.613 58.8736 150.686 59.6447 145.05 61.4809C142.808 62.2136 140.625 63.1163 138.519 64.1811C135.612 65.6519 132.576 67.4785 129.445 67.8882C129.119 67.9346 128.791 67.9608 128.461 67.9664L116.88 55.7494C116.868 55.7084 116.853 55.6699 116.84 55.6288L116.355 55.1622C116.46 55.0996 116.57 55.0371 116.675 54.9745C116.736 54.938 116.799 54.9042 116.859 54.8677C116.901 54.8442 116.942 54.8208 116.978 54.7973C116.992 54.7894 117.005 54.7817 117.016 54.7765C117.052 54.7529 117.088 54.7348 117.121 54.7139C117.735 54.3624 118.352 54.0145 118.973 53.6704C118.976 53.6678 118.976 53.6678 118.982 53.6678C123.72 51.0579 128.717 48.8216 133.893 47.4168C134.049 47.3746 134.207 47.3296 134.368 47.293C136.705 46.6728 139.089 46.2451 141.495 46.0142C142.813 45.892 144.137 45.8368 145.46 45.8488C148.88 45.8863 152.273 46.463 155.515 47.5576C161.976 49.7407 167.669 53.9712 170.698 59.9971C170.776 60.1513 170.85 60.3029 170.925 60.4598Z" fill="#F0F0F0"/>
<path d="M170.745 60.5797C163.773 55.6444 155.427 53.0371 146.893 53.128C145.055 53.1149 143.227 53.3923 141.475 53.9499C139.787 54.5484 138.289 55.5893 137.137 56.9645C136.038 58.2251 135.059 59.6422 133.673 60.6129C132.956 61.0992 132.145 61.4281 131.292 61.5781C130.44 61.728 129.565 61.6956 128.726 61.4829C126.622 61.0075 124.813 59.8023 123.085 58.5621C121.167 57.1851 119.196 55.7243 116.814 55.3186C116.526 55.2694 116.619 54.8234 116.907 54.8725C121.05 55.5785 123.773 59.2203 127.598 60.6675C129.382 61.3427 131.38 61.4829 133.067 60.4647C134.541 59.5742 135.552 58.1138 136.654 56.8277C137.758 55.4697 139.177 54.4033 140.787 53.7217C142.504 53.0764 144.318 52.7289 146.152 52.694C150.279 52.5494 154.403 53.0563 158.373 54.1961C162.912 55.4717 167.199 57.5163 171.049 60.2413C171.287 60.4101 170.981 60.7474 170.745 60.5797L170.745 60.5797Z" fill="white"/>
<path d="M149.639 52.9365C149.818 51.4989 150.501 50.1719 151.566 49.1926C152.631 48.2133 154.008 47.6453 155.452 47.5903C155.744 47.5801 155.774 48.0349 155.481 48.0451C154.136 48.0939 152.853 48.623 151.864 49.537C150.874 50.451 150.242 51.6896 150.084 53.0293C150.049 53.3204 149.604 53.2259 149.639 52.9365H149.639Z" fill="white"/>
<path d="M137.61 56.2516C139.403 58.6055 142.015 60.1954 144.925 60.7043C145.213 60.7545 145.121 61.2005 144.833 61.1504C141.805 60.6151 139.091 58.955 137.23 56.5015C137.053 56.2675 137.434 56.0189 137.61 56.2516V56.2516Z" fill="white"/>
<path d="M162.532 55.9407C162.347 56.4824 162.299 57.0617 162.392 57.6266C162.486 58.1915 162.718 58.7242 163.068 59.177C163.248 59.4086 162.866 59.6569 162.688 59.4268C162.304 58.9248 162.048 58.3361 161.943 57.7123C161.839 57.0884 161.888 56.4483 162.087 55.8479C162.101 55.7897 162.136 55.7391 162.186 55.7063C162.236 55.6735 162.297 55.6609 162.355 55.6712C162.414 55.6838 162.466 55.7192 162.499 55.7696C162.532 55.8201 162.543 55.8815 162.532 55.9407V55.9407Z" fill="white"/>
<path d="M132.387 39.0632H131.489V14.414C131.489 12.5405 131.121 10.6854 130.406 8.95453C129.691 7.22366 128.643 5.65096 127.322 4.32621C126 3.00146 124.432 1.95062 122.705 1.23367C120.979 0.516718 119.128 0.147706 117.26 0.147705H65.1719C63.3032 0.147701 61.4529 0.516705 59.7265 1.23365C58.0001 1.95059 56.4314 3.00144 55.1101 4.32618C53.7888 5.65092 52.7407 7.22363 52.0256 8.95449C51.3105 10.6854 50.9424 12.5405 50.9424 14.414V149.641C50.9424 153.425 52.4416 157.054 55.1101 159.729C57.7786 162.405 61.398 163.908 65.1718 163.908H117.26C121.034 163.908 124.653 162.405 127.321 159.729C129.99 157.054 131.489 153.425 131.489 149.642V56.6089H132.387V39.0632Z" fill="#3F3D56"/>
<path d="M117.834 3.85939H111.035C111.347 4.62795 111.467 5.46182 111.382 6.28752C111.298 7.11323 111.012 7.90544 110.55 8.59436C110.088 9.28328 109.465 9.84777 108.734 10.2381C108.003 10.6284 107.188 10.8326 106.36 10.8327H76.5198C75.6919 10.8326 74.8768 10.6284 74.1461 10.2381C73.4155 9.84777 72.7918 9.28329 72.33 8.59437C71.8682 7.90545 71.5825 7.11323 71.498 6.28752C71.4135 5.46181 71.5329 4.62794 71.8455 3.85938H65.4951C62.6768 3.85937 59.9739 4.98184 57.9811 6.97983C55.9882 8.97782 54.8687 11.6877 54.8687 14.5133V149.542C54.8687 150.941 55.1435 152.327 55.6775 153.619C56.2116 154.912 56.9943 156.086 57.9811 157.076C58.9678 158.065 60.1393 158.85 61.4285 159.385C62.7178 159.921 64.0996 160.196 65.4951 160.196H117.834C119.229 160.196 120.611 159.921 121.9 159.385C123.19 158.85 124.361 158.065 125.348 157.076C126.335 156.086 127.117 154.912 127.651 153.619C128.185 152.327 128.46 150.941 128.46 149.542V14.5133C128.46 11.6877 127.341 8.97782 125.348 6.97983C123.355 4.98184 120.652 3.85938 117.834 3.85939Z" fill="white"/>
<path d="M92.6699 116.82C88.8157 116.823 84.9987 116.065 81.4372 114.588C77.8757 113.111 74.6398 110.944 71.9145 108.212C69.1892 105.479 67.028 102.235 65.5548 98.6643C64.0815 95.0936 63.325 91.2667 63.3286 87.4025C63.3232 81.9765 64.8168 76.655 67.6438 72.0282C70.4709 67.4014 74.521 63.65 79.3449 61.1901C82.8416 59.4065 86.659 58.3426 90.5721 58.061C94.4853 57.7794 98.4151 58.2859 102.13 59.5506C108.709 61.7984 114.279 66.3145 117.847 72.2948C121.416 78.275 122.751 85.3309 121.615 92.2059C120.479 99.0809 116.947 105.329 111.646 109.836C106.345 114.344 99.6205 116.818 92.6699 116.82L92.6699 116.82ZM92.6699 59.139C88.2186 59.1258 83.829 60.1814 79.868 62.2175C76.4057 63.986 73.3455 66.4531 70.8794 69.4637C68.4133 72.4744 66.5946 75.9637 65.5375 79.7126C64.4804 83.4615 64.2077 87.3889 64.7366 91.2485C65.2654 95.108 66.5844 98.8163 68.6107 102.14C70.6369 105.465 73.3268 108.333 76.5113 110.565C79.6958 112.798 83.3062 114.346 87.1159 115.113C90.9256 115.88 94.8524 115.849 98.6496 115.022C102.447 114.195 106.032 112.59 109.182 110.308C110.704 109.206 112.112 107.954 113.384 106.569C117.104 102.534 119.57 97.4986 120.479 92.0797C121.388 86.6609 120.701 81.0939 118.503 76.0603C116.305 71.0267 112.69 66.745 108.102 63.7395C103.514 60.7341 98.1507 59.1353 92.6699 59.139Z" fill="#F0F0F0"/>
<path d="M29.0918 61.2957C29.8972 61.3969 30.6707 61.674 31.3577 62.1073C32.0447 62.5407 32.6286 63.1198 33.0683 63.8039C33.5079 64.488 33.7926 65.2604 33.9023 66.0667C34.012 66.873 33.944 67.6936 33.7032 68.4708L43.4518 76.6121L39.962 83.7583L26.3561 72.0673C25.0808 71.5751 24.0298 70.631 23.4024 69.4138C22.775 68.1966 22.6147 66.791 22.9519 65.4632C23.2891 64.1355 24.1004 62.9779 25.2321 62.2098C26.3637 61.4417 27.737 61.1164 29.0919 61.2957L29.0918 61.2957Z" fill="#FFB6B6"/>
<path d="M120.139 95.2472C119.944 93.1401 119.136 89.3521 118.45 87.9515C116.341 82.4188 102.719 77.8716 100.889 77.2854L100.425 72.1134L81.4972 70.0715L79.0961 76.6855L72.3075 79.2389C71.8466 79.4112 71.4294 79.6836 71.0859 80.0367C70.7424 80.3897 70.4811 80.8146 70.3206 81.2808L64.23 83.0458L58.2198 84.7878L37.3396 70.0369L36.3538 70.6829L29.7646 74.9936L28.748 75.6588L55.7689 100.1L65.8063 97.739L73.3545 95.9586L73.9988 98.5812L72.3305 107.795C77.164 112.643 83.5622 115.605 90.3774 116.151C97.1926 116.698 103.979 114.791 109.519 110.775L113.807 106.96C116.796 103.72 119.001 99.8353 120.254 95.6048L120.139 95.2472Z" fill="#05CE91"/>
<path d="M96.9085 65.8415C104.054 63.4696 107.928 55.7395 105.563 48.5758C103.197 41.412 95.4867 37.5274 88.3415 39.8992C81.1962 42.2711 77.3216 50.0012 79.6873 57.165C82.053 64.3287 89.7632 68.2133 96.9085 65.8415Z" fill="#FFB6B6"/>
<path d="M81.8602 37.2937C83.1851 35.3967 85.1734 34.0689 87.4299 33.5741C89.661 33.114 91.9831 33.5411 93.9061 34.7651C95.9972 33.9205 98.2518 33.3602 100.467 33.6451C102.682 33.9299 104.853 35.1704 105.878 37.2141C106.094 37.7435 106.355 38.2529 106.66 38.7364C107.563 39.9442 109.241 40.1009 110.723 40.1589C109.974 40.5971 109.224 41.0352 108.475 41.4733C109.222 41.8222 109.969 42.1712 110.716 42.5202C109.699 42.9092 108.682 43.2983 107.666 43.6873C110.032 45.7724 110.604 49.4832 109.708 52.5943C108.86 55.5398 106.916 58.0194 104.744 60.1422C104.321 58.5582 104.787 56.8409 105.097 55.201C105.425 53.4683 105.477 51.4422 104.267 50.2188C103.451 49.3936 102.253 49.1443 101.124 48.9441C95.429 47.9342 89.681 47.25 83.9082 46.8946C83.1356 46.7876 82.3486 46.8681 81.6135 47.1295C80.2087 47.7554 79.6442 49.4742 79.2372 50.9983C79.0421 48.3231 79.1979 45.6339 79.7005 42.9993C80.0857 40.9829 80.6923 38.9647 81.8602 37.2937Z" fill="#2F2E41"/>
<path d="M99.5739 130.679H83.465C82.9055 130.679 82.3689 130.457 81.9733 130.06C81.5777 129.663 81.3555 129.125 81.3555 128.564C81.3555 128.004 81.5777 127.466 81.9733 127.069C82.3689 126.672 82.9055 126.449 83.465 126.449H99.5739C100.133 126.449 100.67 126.672 101.066 127.069C101.461 127.466 101.683 128.004 101.683 128.564C101.683 129.125 101.461 129.663 101.066 130.06C100.67 130.457 100.133 130.679 99.5739 130.679Z" fill="#05CE91"/>
<path d="M46.7144 17.5001H2.40539C1.99708 17.4995 1.60571 17.3364 1.31722 17.0467C1.02873 16.757 0.866699 16.3644 0.866699 15.955C0.866699 15.5456 1.02873 15.153 1.31722 14.8633C1.60571 14.5736 1.99708 14.4106 2.40539 14.4099H46.7144C47.1231 14.4099 47.5151 14.5727 47.8041 14.8625C48.0931 15.1522 48.2555 15.5452 48.2555 15.955C48.2555 16.3648 48.0931 16.7578 47.8041 17.0476C47.5151 17.3373 47.1231 17.5001 46.7144 17.5001Z" fill="#05CE91"/>
<path d="M72.2969 27.3686H2.40528C1.99657 27.3686 1.60461 27.2058 1.31561 26.9161C1.02661 26.6263 0.864258 26.2333 0.864258 25.8236C0.864258 25.4138 1.02661 25.0208 1.31561 24.7311C1.60461 24.4413 1.99657 24.2786 2.40528 24.2786H72.2969C72.7056 24.2786 73.0975 24.4413 73.3865 24.7311C73.6755 25.0208 73.8379 25.4138 73.8379 25.8236C73.8379 26.2333 73.6755 26.6263 73.3865 26.9161C73.0975 27.2058 72.7056 27.3686 72.2969 27.3686Z" fill="#05CE91"/>
<path d="M58.8659 36.6657H2.40528C1.99657 36.6657 1.60461 36.5029 1.31561 36.2132C1.02661 35.9234 0.864258 35.5305 0.864258 35.1207C0.864258 34.7109 1.02661 34.3179 1.31561 34.0282C1.60461 33.7385 1.99657 33.5757 2.40528 33.5757H58.8659C59.2746 33.5757 59.6666 33.7385 59.9556 34.0282C60.2445 34.3179 60.4069 34.7109 60.4069 35.1207C60.4069 35.5305 60.2445 35.9234 59.9556 36.2132C59.6666 36.5029 59.2746 36.6657 58.8659 36.6657Z" fill="#CACACA"/>
<path d="M34.243 45.9284H2.40528C1.99657 45.9284 1.60461 45.7656 1.31561 45.4759C1.02661 45.1861 0.864258 44.7931 0.864258 44.3834C0.864258 43.9736 1.02661 43.5806 1.31561 43.2909C1.60461 43.0012 1.99657 42.8384 2.40528 42.8384H34.243C34.6517 42.8384 35.0437 43.0012 35.3327 43.2909C35.6217 43.5806 35.784 43.9736 35.784 44.3834C35.784 44.7931 35.6217 45.1861 35.3327 45.4759C35.0437 45.7656 34.6517 45.9284 34.243 45.9284Z" fill="#CACACA"/>
<path d="M51.8309 55.1906H2.40528C1.997 55.19 1.60567 55.0269 1.3172 54.7372C1.02872 54.4475 0.866699 54.0549 0.866699 53.6456C0.866699 53.2363 1.02872 52.8436 1.3172 52.554C1.60567 52.2643 1.997 52.1012 2.40528 52.1006H51.8309C52.2392 52.1012 52.6305 52.2643 52.919 52.554C53.2075 52.8436 53.3695 53.2363 53.3695 53.6456C53.3695 54.0549 53.2075 54.4475 52.919 54.7372C52.6305 55.0269 52.2392 55.19 51.8309 55.1906Z" fill="#CACACA"/>
</svg>
